<svg width="149" height="198" viewBox="0 0 149 198" fill="none" xmlns="http://www.w3.org/2000/svg">
<g filter="url(#filter0_i)">
<path d="M31.8653 198C33.4897 196.897 35.8124 195.237 38.5037 193.066C43.2423 189.244 50.0337 183.063 55.478 175.329C60.0541 168.829 63.4408 162.095 65.545 155.317C67.5001 149.018 67.711 144.713 67.711 143.154C67.711 138.307 63.1615 135.625 60.0161 135.625C56.7567 135.625 53.6759 138.67 53.6759 141.891C53.6759 144.982 56.4242 146.691 58.3232 146.691C60.1348 146.691 62.0899 145.33 62.0899 143.131C62.0899 141.785 61.0307 141.029 60.2564 140.475C59.6598 140.049 59.2685 139.747 59.2685 139.455C59.2685 138.491 59.9353 138.348 60.3324 138.348C60.3714 138.348 64.2179 138.48 64.2179 143.222C64.2179 145.192 63.5063 146.696 62.1032 147.692C60.5747 148.778 58.841 148.863 58.346 148.863C57.2459 148.863 55.5027 148.386 54.0892 147.323C52.3288 145.998 51.4359 144.111 51.4359 141.711C51.4359 138.629 53.0613 136.714 54.4254 135.65C56.2893 134.196 58.4439 133.679 59.7235 133.679C61.671 133.679 62.6637 133.965 63.4617 134.195C63.9927 134.348 64.4943 134.492 65.0956 134.492C65.5906 134.492 66.0114 134.275 66.2784 133.883C66.9795 132.855 66.7277 130.589 63.3629 122.049C59.9268 113.329 54.2715 106.282 51.7607 103.774C48.8519 100.869 43.191 100.784 42.5554 100.784C42.5554 100.784 42.297 100.783 42.2248 100.783C41.3936 100.783 38.8657 100.783 36.181 102.433C33.864 103.858 32.1028 105.409 30.6873 106.655C30.446 106.867 30.2132 107.072 29.9871 107.268C26.59 110.213 24.9389 113.668 24.9389 117.829C24.9389 124.551 30.1372 130.229 36.2912 130.229C42.6818 130.229 46.1302 125.606 46.1302 121.257C46.1302 116.586 42.6656 114.066 39.4062 114.066C37.8046 114.066 36.2817 114.664 35.118 115.751C34.0597 116.739 33.427 118.022 33.427 119.182C33.427 120.451 34.0882 121.295 34.6202 121.973C34.9489 122.393 35.233 122.755 35.233 123.061C35.233 123.663 35.1123 124.304 33.6721 124.304C32.5084 124.304 30.8697 122.708 30.8697 119.16C30.8697 117.234 31.6344 115.302 32.9682 113.859C34.0616 112.675 36.067 111.264 39.4053 111.264C45.4481 111.264 48.7085 116.494 48.7085 121.415C48.7085 124.242 47.6492 127.078 45.8034 129.197C44.2844 130.941 41.4952 133.019 36.8318 133.019C31.7038 133.019 27.7936 131.049 25.2106 127.164C23.1482 124.061 22.4158 120.384 22.4158 118.177C22.4158 114.184 23.3344 112.249 23.3439 112.23C23.5007 111.916 23.4484 111.54 23.2138 111.279C23.0494 111.096 22.8167 110.998 22.5792 110.998C22.4775 110.998 22.3749 111.016 22.2761 111.053C22.2666 111.056 21.0089 111.506 18.8182 111.506C14.1766 111.506 9.79622 109.784 6.48363 106.657C3.22044 103.576 1.42307 99.559 1.42307 95.3454C1.42307 91.2467 2.80625 87.5171 5.318 84.8437C7.72146 82.2852 10.9409 80.8769 14.3827 80.8769C17.7495 80.8769 20.779 81.9635 22.9155 83.9355C25.0282 85.8867 26.192 88.6416 26.192 91.6927C26.192 95.3682 24.6359 97.6334 23.3306 98.8861C21.6947 100.457 19.4946 101.358 17.2944 101.358C15.1218 101.358 13.1411 100.68 11.7171 99.4479C10.1876 98.125 9.38013 96.2393 9.38013 93.9921C9.38013 91.3216 10.5391 89.7425 11.5109 88.8874C12.8105 87.7448 14.3713 87.3377 15.3983 87.3377C17.398 87.3377 21.1799 88.3826 21.1799 92.3352C21.1799 94.7674 19.9287 95.8759 18.7669 95.8759C18.4468 95.8759 18.1599 95.781 18.0003 95.6216C17.6782 95.2998 17.7428 94.9886 18.1314 94.088C18.3394 93.6049 18.5551 93.1057 18.5551 92.5724C18.5551 91.0568 17.1538 89.8241 15.4315 89.8241C13.7101 89.8241 11.8681 91.4858 11.8681 93.9589C11.8681 96.4415 14.454 98.703 17.2944 98.703C20.3021 98.703 23.4997 96.2583 23.4997 91.7268C23.4997 86.7493 18.8372 83.6679 14.5186 83.6679C12.1902 83.6679 9.62427 84.783 7.65306 86.6506C5.34935 88.8343 4.08112 91.8502 4.08112 95.1433C4.08112 102.519 10.939 108.75 19.0557 108.75C23.9937 108.75 27.3395 106.443 29.2766 104.508C32.9302 100.858 35.2766 100.056 35.3004 100.049C35.6357 99.9433 35.8694 99.6434 35.8941 99.2933C35.9179 98.9421 35.7222 98.6138 35.4039 98.4638C35.3916 98.4581 33.9343 97.7502 32.5056 96.1843C30.6189 94.1164 29.6632 91.593 29.6632 88.6824C29.6632 85.5128 30.7956 82.8926 32.9368 81.1056C34.7076 79.628 37.0911 78.7796 39.4737 78.7796C43.7818 78.7796 47.2873 82.3118 47.2873 86.6525C47.2873 89.1759 46.1179 90.7579 45.1365 91.6414C43.9538 92.7062 42.3939 93.3411 40.9642 93.3411C39.4851 93.3411 38.0392 92.877 36.999 92.0666C35.7716 91.1109 35.1484 89.7558 35.1484 88.039C35.1484 83.332 39.3948 83.2779 39.5753 83.2779C41.1086 83.2779 41.8695 83.8065 41.9493 83.8662C42.108 84.0029 42.3008 84.0703 42.4946 84.0703C42.716 84.0703 42.9364 83.983 43.1055 83.8122C43.4237 83.4914 43.4256 82.9694 43.1245 82.6325C43.0675 82.568 41.689 81.0629 39.1355 81.0629C36.618 81.0629 31.9147 83.2883 31.9147 88.6483C31.9147 91.4317 32.8437 93.6211 34.6753 95.1546C36.656 96.8135 39.6836 97.6543 43.6726 97.6543C51.2326 97.6543 55.0971 101.27 55.1351 101.307C55.2994 101.465 55.5132 101.544 55.7269 101.544C55.9131 101.544 56.1003 101.484 56.257 101.36C56.5914 101.096 56.6807 100.626 56.4651 100.257C56.4546 100.24 55.3308 98.2721 53.7006 92.9957C52.0913 87.7866 52.2338 80.8256 53.0461 76.5618C53.219 75.6564 53.3995 74.8365 53.5733 74.0431C54.2155 71.1259 54.8216 68.37 54.8216 62.3296C54.8216 53.8948 47.9523 47.0316 39.5079 47.0316C30.94 47.0316 25.8196 53.5029 25.8196 59.7587C25.8196 65.5296 30.2702 70.0507 35.9521 70.0507C40.8863 70.0507 43.9519 67.2217 43.9519 62.6684C43.9519 58.247 40.8758 56.2332 38.0173 56.2332C34.7969 56.2332 33.4042 59.084 33.4042 60.5379C33.4042 62.0866 34.3732 64.2674 36.5278 64.2674C37.5861 64.2674 38.3128 63.8859 38.6871 63.1324C38.9749 62.5526 38.9749 61.8902 38.974 61.2496V61.1813C38.974 60.6033 39.1573 59.6335 40.3876 59.6335C41.2615 59.6335 41.632 61.3939 41.632 62.0942C41.632 62.3505 41.5978 63.6876 40.9252 64.8795C40.1349 66.2803 38.7355 66.9901 36.7643 66.9901C34.6554 66.9901 33.0043 66.1949 31.8548 64.6252C30.8611 63.2691 30.5087 61.6852 30.5087 60.7409C30.5087 60.4496 30.5961 53.612 38.2206 53.612C41.0563 53.612 43.2945 54.7888 44.8743 57.111C46.3012 59.2083 46.6774 61.5087 46.6774 62.4321C46.6774 63.2511 46.5558 66.1161 44.9874 68.6262C43.1976 71.4903 40.1463 72.9432 35.9188 72.9432C31.813 72.9432 28.565 71.4618 26.2651 68.5389C24.5209 66.323 23.9928 64.0596 23.9871 64.0368C23.9092 63.6961 23.6318 63.4352 23.286 63.3811C23.2413 63.3744 23.1967 63.3706 23.153 63.3706C22.8547 63.3706 22.5735 63.5263 22.4177 63.7891C22.412 63.7977 21.6833 64.9849 20.0247 66.1531C17.8027 67.718 15.0496 68.5114 11.8434 68.5114C4.06782 68.5142 0 62.4776 0 56.5141C0 53.687 1.00698 51.2376 2.91265 49.4298C4.71286 47.7216 7.13817 46.7811 9.74397 46.7811C12.1265 46.7811 14.1424 47.6409 15.5731 49.2684C16.8555 50.7271 17.5908 52.7636 17.5908 54.8571C17.5908 57.2201 16.4879 58.7338 15.5636 59.587C14.3533 60.703 12.726 61.3436 11.0986 61.3436C8.00835 61.3436 5.5878 59.0593 5.5878 56.143C5.5878 54.7575 6.04474 53.5143 6.87502 52.6431C7.72336 51.752 8.90324 51.2803 10.2864 51.2803C12.9492 51.2803 13.9343 54.246 13.9752 54.3722C14.0911 54.7319 14.4255 54.9663 14.7893 54.9663C14.8482 54.9663 14.9071 54.9606 14.967 54.9473C15.3964 54.8562 15.6871 54.4576 15.6396 54.022C15.6339 53.9689 15.4904 52.7067 14.6782 51.4511C13.9144 50.2696 12.4087 48.8623 9.57487 48.8623C4.38417 48.8623 2.04911 53.4564 2.04911 56.7181C2.04911 60.5834 4.68436 66.3334 11.9451 66.3334C15.1484 66.3334 18.1067 65.1102 20.5016 62.7946C22.2961 61.0598 23.1435 59.3269 23.1786 59.2539C23.2347 59.1381 23.2632 59.0109 23.2632 58.8828C23.2632 52.8699 27.3053 49.5351 27.3462 49.5019C27.6283 49.2741 27.7366 48.8936 27.615 48.5519C27.4944 48.2103 27.1723 47.9816 26.8095 47.9816C24.3291 47.9816 21.273 46.4328 18.8325 43.9388C16.1602 41.2076 14.6278 37.7779 14.6278 34.5276C14.6278 31.1947 15.8742 28.1398 18.138 25.9249C20.2555 23.8522 23.133 22.6641 26.0305 22.6641C32.1085 22.6641 35.7402 27.4414 35.7402 32.0592C35.7402 36.901 31.6933 39.898 27.9437 39.898C24.1989 39.898 21.4003 36.5983 21.4003 33.6488C21.4003 30.9005 23.0466 28.1266 26.7249 28.1266C30.1429 28.1266 31.0435 30.9916 31.0511 31.3997C31.0511 31.7176 30.7072 32.3373 30.0774 32.3373C29.7259 32.3373 29.6091 32.23 29.1721 31.6825C28.9944 31.4595 28.7921 31.207 28.5318 30.947C28.0957 30.5114 27.407 30.2609 26.6442 30.2609C25.1375 30.2609 23.5168 31.3 23.5168 33.5805C23.5168 36.7255 26.685 37.7836 28.1299 37.7836C30.7699 37.7836 33.5904 36.2709 33.5904 32.0251C33.5904 26.5987 28.223 24.9132 26.268 24.9132C23.647 24.9132 16.846 26.7135 16.846 34.9338C16.846 38.67 18.7166 41.796 22.2552 43.974C25.1194 45.7363 28.2686 46.3759 29.687 46.3759C30.9789 46.3759 32.2557 45.9735 33.6075 45.5465C35.2405 45.0311 37.0911 44.4475 39.3711 44.4475C43.4256 44.4475 47.0507 46.2032 47.0868 46.2202C47.2065 46.2791 47.3357 46.3076 47.463 46.3076C47.692 46.3076 47.9181 46.2155 48.0834 46.0418C48.3408 45.7714 48.3921 45.3652 48.2107 45.0387C47.805 44.309 47.0241 43.6162 46.0362 42.7393C43.798 40.754 40.7333 38.0341 40.7333 33.4457C40.7333 26.8492 46.0742 23.8817 49.8674 23.8817C51.8339 23.8817 53.8108 24.6513 55.2899 25.9941C56.8318 27.393 57.6801 29.2587 57.6801 31.2478C57.6801 35.637 54.6487 38.0047 51.7968 38.0047C48.7996 38.0047 47.4032 36.678 47.4032 35.7803C47.4032 34.8882 47.8801 34.334 48.6477 34.334C49.0694 34.334 49.4732 34.538 49.9016 34.7553C50.389 35.0021 50.9419 35.2811 51.5935 35.2811C53.0974 35.2811 54.8529 34.2334 54.8529 31.281C54.8529 28.1256 51.8187 26.7059 49.6641 26.7059C47.5001 26.7059 43.4588 28.6732 43.4588 33.4116C43.4588 36.9143 45.204 38.3682 47.0507 39.9075C47.653 40.4095 48.2762 40.9286 48.8823 41.5502C51.206 43.9341 52.0609 46.4414 52.0695 46.466C52.1863 46.8153 52.5141 47.0506 52.8808 47.0506C52.8884 47.0506 52.896 47.0506 52.9026 47.0506C53.2788 47.0411 53.6047 46.7878 53.7044 46.4252C54.5812 43.2641 56.2124 40.6904 58.5522 38.7782C60.3334 37.3224 62.0738 36.6467 62.8223 36.4768C64.7157 36.0469 65.4737 35.3399 65.7758 34.8227C66.8674 32.9522 66.5843 31.9596 66.1919 30.5845C65.8651 29.44 65.4177 27.8722 65.4177 24.8193C65.4177 18.7049 67.1704 16.5829 67.2683 16.469C67.3899 16.3494 67.4554 16.2147 67.4887 16.0467C67.4982 16.0002 67.7205 14.8899 67.7205 13.7235C67.7205 6.59272 61.0098 2.21402 56.1991 2.21402C51.2744 2.21402 47.4545 6.80056 47.4545 10.7465C47.4545 14.8092 50.8535 17.9599 53.7776 17.9599C56.7216 17.9599 59.6105 15.3757 59.6105 12.7423C59.6105 9.97877 57.1908 8.69192 55.5559 8.69192C53.8431 8.69192 52.4495 9.91708 52.4495 11.4232C52.4495 12.5572 53.2199 13.0924 53.7301 13.4464C53.9011 13.5651 54.0625 13.677 54.1822 13.7947C54.2886 13.9437 54.3998 14.5178 54.1898 14.9392C54.0949 15.13 53.8954 15.3833 53.2655 15.3833C51.6116 15.3833 50.3282 13.176 50.3282 11.2761C50.3282 10.179 50.7595 9.02407 51.4814 8.1861C52.4495 7.06248 53.8849 6.49308 55.7488 6.49308C57.6003 6.49308 59.0823 7.23994 60.1529 8.71185C61.1684 10.1069 61.5304 11.8141 61.5304 12.9454C61.5304 14.1155 61.0763 15.9062 59.8004 17.4246C58.8201 18.5919 56.9923 19.9832 53.8526 19.9832C50.6056 19.9832 48.5755 18.2968 47.444 16.8818C46.0561 15.1461 45.2268 12.8134 45.2268 10.644C45.2268 8.43759 46.3439 5.8098 48.1432 3.78652C49.6793 2.06029 52.3877 0 56.562 0C60.9908 0 64.4715 1.88662 66.9092 5.60766C68.7711 8.44992 69.3041 11.352 69.3088 11.3814C69.363 11.6879 69.5805 11.9404 69.875 12.041C69.9653 12.0713 70.0584 12.0865 70.1515 12.0865C70.3614 12.0865 70.5666 12.0096 70.7262 11.8644C70.768 11.8265 75.0857 7.98301 80.8055 7.98301C85.0937 7.98301 88.6695 9.46631 91.1461 12.2716C93.2123 14.6127 94.3979 17.7521 94.3979 20.8847C94.3979 23.6586 93.2987 26.4297 91.3817 28.4891C89.3924 30.6253 86.7429 31.802 83.9205 31.802C81.157 31.802 78.8257 30.8787 77.1785 29.1334C75.7022 27.5685 74.889 25.4722 74.889 23.2306C74.889 18.6612 77.7675 15.4706 81.8894 15.4706C86.4959 15.4706 88.1679 19.1404 88.1679 21.6069C88.1679 22.9811 87.6834 24.2679 86.8046 25.2321C85.9107 26.2124 84.6786 26.7514 83.3344 26.7514C81.6481 26.7514 80.7428 26.0141 80.4816 25.382C80.4113 25.2122 80.2811 24.7832 80.5984 24.4662C80.9765 24.0885 81.196 24.0885 81.3014 24.0885C81.479 24.0885 81.6966 24.1436 81.9474 24.2072C82.3055 24.2973 82.7112 24.4008 83.1985 24.4008C84.7004 24.4008 85.6333 23.261 85.6333 21.4266C85.6333 19.9718 84.6406 18.2721 81.8438 18.2721C79.2295 18.2721 77.3314 20.2811 77.3314 23.0503C77.3314 26.0036 79.4071 29.1809 83.9651 29.1809C88.7958 29.1809 91.6828 24.8487 91.6828 20.6598C91.6828 16.5032 88.336 10.6497 80.8958 10.6497C73.4859 10.6497 67.6805 16.73 67.6805 24.4928C67.6805 32.1731 72.6632 36.1409 72.8751 36.306C72.9349 36.3525 73.0005 36.3905 73.0698 36.4199C75.6519 37.5027 77.8064 39.3115 79.2998 41.6508C80.6212 43.7206 81.3499 46.0845 81.3499 48.3062C81.3499 50.7831 80.4398 53.4441 78.9141 55.4246C76.9543 57.9689 74.0492 59.3136 70.5115 59.3136C62.5744 59.3136 61.3888 53.0388 61.3888 49.2988C61.3888 47.8127 62.3027 47.1484 63.209 47.1484C64.1257 47.1484 65.051 47.8696 65.051 49.4791C65.051 55.0488 68.5004 55.8811 70.5562 55.8811C73.3681 55.8811 77.5509 53.8521 77.5509 48.2616C77.5509 42.9215 72.6034 39.3343 67.9826 39.3343C64.1865 39.3343 61.3356 40.6676 59.012 43.5289C56.7643 46.2971 56.2228 49.8454 57.3561 54.3769C58.4458 58.7319 58.5037 63.8233 58.5047 63.8746C58.5075 64.1868 58.6804 64.4724 58.9559 64.6195C59.0823 64.6869 59.221 64.7211 59.3597 64.7211C59.5221 64.7211 59.6846 64.6746 59.8261 64.5825C61.5769 63.4437 63.0646 62.8269 65.906 62.8269C70.7623 62.8269 74.7123 66.7738 74.7123 71.6241C74.7123 73.7262 73.8811 75.6745 72.3706 77.1112C71.0226 78.3933 69.23 79.1592 67.5761 79.1592C64.3347 79.1592 60.9813 77.0154 60.9813 73.4282C60.9813 71.7181 61.538 70.2537 62.5924 69.1928C63.5795 68.1992 64.9323 67.6525 66.4019 67.6525C69.2081 67.6525 70.654 71.0604 70.6683 71.0946C70.8022 71.4163 71.1157 71.6213 71.4577 71.6213C71.49 71.6213 71.5223 71.6194 71.5555 71.6156C71.9346 71.5719 72.2386 71.2834 72.3013 70.9076C72.4039 70.2927 71.9612 68.7524 70.8639 67.4589C69.9985 66.4388 68.4206 65.2231 65.8138 65.2231C60.8217 65.2231 58.3175 69.3911 58.214 69.5686C58.137 69.6995 58.0962 69.8485 58.0962 70.0004C58.0962 70.0099 58.062 71.5643 56.903 76.1974C55.4932 81.8297 55.9122 89.0725 57.9689 94.6498C59.6437 99.1908 60.8426 101.353 63.1263 101.353C63.4902 101.353 63.8768 101.301 64.3803 101.186C66.3781 100.728 66.5092 98.3528 66.647 95.8379C66.7211 94.4951 66.7971 93.1057 67.1172 91.8341C68.1755 87.63 69.8769 84.0456 72.173 81.1806C74.0217 78.8735 76.2674 77.0163 78.8466 75.6593C83.3942 73.2668 87.5675 73.1976 88.0292 73.1976C88.0691 73.1976 88.0919 73.1976 88.0966 73.1985C88.1033 73.1985 88.1099 73.1985 88.1166 73.1985C88.2904 73.1985 88.4624 73.1454 88.6058 73.0457C90.8981 71.4552 92.2708 69.3446 92.4722 67.1021C92.6394 65.2307 91.964 63.3868 90.6198 62.0439C89.3962 60.8216 87.8496 60.1488 86.266 60.1488C84.6957 60.1488 83.2603 60.8064 82.4262 61.9073C81.4049 63.2558 81.1674 65.3436 81.8742 66.7633C82.4347 67.8888 83.4978 68.5085 84.8686 68.5085C87.2673 68.5085 87.4288 66.8677 87.5067 66.0791C87.5817 65.318 87.6359 65.3066 87.9361 65.243C88.2287 65.1813 88.4956 65.1491 88.7293 65.1491C89.3516 65.1491 89.9282 65.3161 89.9282 66.527C89.9282 67.7085 88.3161 70.6789 84.5076 70.6789C82.8309 70.6789 81.2045 69.6739 80.1586 67.9904C78.9388 66.0278 78.8086 63.6496 79.8109 61.6292C80.9661 59.2994 83.646 57.7943 86.6394 57.7943C88.089 57.7943 89.5206 58.1568 90.7803 58.8429C95.4381 61.3806 94.4178 68.9906 94.4064 69.0675C94.3627 69.3721 94.4872 69.6777 94.7323 69.8647C94.8843 69.9814 95.0686 70.0421 95.2538 70.0421C95.3668 70.0421 95.4799 70.0203 95.5872 69.9747C108.516 64.4942 115.522 59.5329 115.522 49.0283C115.522 38.8152 108.21 33.4713 100.987 33.4713C97.6345 33.4713 94.5081 34.7601 92.1853 37.1013C90.122 39.1805 88.8899 41.9194 88.8899 44.4285C88.8899 49.1716 92.0372 54.2128 97.871 54.2128C100.948 54.2128 102.678 52.6384 103.587 51.3164C104.552 49.9147 104.799 48.5092 104.809 48.4495C104.883 48.0148 104.613 47.5954 104.186 47.4815C104.113 47.4615 104.039 47.4521 103.966 47.4521C103.616 47.4521 103.291 47.6684 103.164 48.011C102.054 51.0175 99.7387 51.4663 98.4581 51.4663C97.2801 51.4663 96.1496 51.1968 95.2756 50.7071C93.6711 49.8084 92.857 48.1505 92.857 45.7809C92.857 43.3713 93.8811 41.535 95.9017 40.3231C97.623 39.2906 99.5116 39.0581 100.038 39.0581C100.118 39.0581 107.986 39.2925 107.986 47.6751C107.986 50.8428 106.701 53.3254 104.167 55.0545C101.948 56.5672 99.2675 57.1044 97.6449 57.1044C97.5071 57.1044 94.2364 57.0816 91.1328 55.1171C87.7831 52.9961 86.0846 49.5218 86.0846 44.7892C86.0846 39.9179 88.0995 36.1399 92.0723 33.5586C95.5701 31.2867 99.5411 30.6803 101.336 30.6803C105.508 30.6803 108.183 32.0858 108.21 32.1C108.336 32.1674 108.476 32.2016 108.614 32.2016C108.788 32.2016 108.96 32.1494 109.107 32.0459C109.371 31.8599 109.509 31.5411 109.461 31.2213C109.458 31.2042 109.2 29.4713 109.2 27.9994C109.2 22.5948 114.469 19.1452 118.096 19.1452C120.095 19.1452 122.096 19.8626 123.586 21.1144C124.755 22.0947 126.146 23.8627 126.146 26.7144C126.146 28.8952 125.418 30.6936 124.038 31.914C122.949 32.8782 121.468 33.4543 120.077 33.4543C117.558 33.4543 115.514 31.7707 115.514 30.6718C115.514 30.2808 115.514 29.2426 117.046 29.2426C117.281 29.2426 117.521 29.4561 117.89 29.8072C118.355 30.2514 118.934 30.8037 119.812 30.8037C122.539 30.8037 123.557 28.2879 123.557 26.7021C123.557 25.4741 122.52 21.9694 117.916 21.9694C115.385 21.9694 113.846 23.2724 113 24.3647C112.031 25.6174 111.597 27.076 111.597 27.9652C111.597 29.7437 111.754 32.2642 113.112 33.6203C117.812 38.316 118.548 44.3289 118.555 44.3887C118.6 44.7768 118.901 45.0852 119.288 45.1374C119.327 45.1431 119.366 45.145 119.405 45.145C119.749 45.145 120.064 44.9381 120.197 44.6126C120.198 44.6079 120.697 43.4719 122.248 42.3512C123.701 41.3006 126.401 40.0479 131.007 40.0479C135.066 40.0479 138.456 41.517 140.812 44.2957C142.789 46.6264 143.922 49.7477 143.922 52.8595C143.922 58.4206 141.443 64.3633 134.483 64.3633C131.544 64.3633 129.256 63.2862 127.681 61.1632C126.31 59.3127 125.948 57.2828 125.948 56.4676C125.948 54.6768 127.201 49.5645 132.768 49.5645C135.043 49.5645 136.664 50.3484 137.586 51.8934C138.374 53.2135 138.413 54.6958 138.413 54.9795C138.413 55.3364 138.264 56.6185 137.599 57.7886C136.837 59.1286 135.683 59.8081 134.167 59.8081C130.575 59.8081 130.044 57.3625 130.039 57.3378C129.987 57.0778 129.822 56.8681 129.602 56.7513C129.677 56.6488 129.731 56.5264 129.752 56.3907C129.803 56.1781 130.039 55.5319 131.029 55.5319C131.541 55.5319 131.757 55.809 132.16 56.4885C132.481 57.0303 132.92 57.7725 133.823 57.7725C135.256 57.7725 136.422 56.4866 136.422 54.9055C136.422 53.3008 134.97 51.5821 132.808 51.5821C130.509 51.5821 129.33 52.8538 128.745 53.9205C128.154 55.0014 128.068 56.051 128.06 56.1677C128.037 56.515 128.224 56.8377 128.516 56.9943C128.409 57.1366 128.346 57.3141 128.346 57.5039C128.346 59.1485 130.282 62.3723 134.755 62.3723C139.289 62.3723 141.705 57.371 141.705 53.761C141.705 50.5505 139.759 42.2183 130.872 42.2183C122.928 42.2183 119.181 48.1145 118.311 51.2319C118.175 51.7169 118.115 52.2379 118.052 52.7892C117.832 54.711 117.529 57.3416 113.864 61.8845C109.185 67.6838 96.0109 72.8483 95.8789 72.8996C95.5388 73.0315 95.3203 73.3646 95.3345 73.729C95.3488 74.0934 95.5929 74.4085 95.9425 74.5129C99.6703 75.6327 102.731 77.5468 105.3 80.3635C107.576 82.8584 109.049 85.6466 110.079 87.797C112.164 92.1529 117.074 96.8069 124.598 96.8069C131.875 96.8069 136.762 90.5586 136.762 84.7223C136.762 78.2795 131.908 74.8033 127.34 74.8033C124.526 74.8033 122.774 76.2097 121.8 77.3893C120.722 78.6961 120.051 80.4176 120.051 81.8819C120.051 84.6084 121.846 87.5057 125.173 87.5057C128.527 87.5057 129.413 84.9775 129.413 83.6413C129.413 82.9647 129.115 80.7573 125.274 80.7573C124.479 80.7573 123.925 79.869 123.925 79.0719C123.925 77.8505 125.1 77.1207 127.069 77.1207C132.032 77.1207 133.155 82.5414 133.155 83.5388C133.155 83.6148 132.948 91.1755 125.545 91.1755C122.487 91.1755 120.082 90.0281 118.396 87.7648C117.048 85.9541 116.445 83.7097 116.445 82.2871C116.445 80.6396 116.974 77.9132 118.467 75.6536C120.433 72.6766 123.543 71.1667 127.712 71.1667C132.07 71.1667 135.438 72.762 137.724 75.9089C139.442 78.2757 140.468 81.5573 140.468 84.6881C140.468 89.8089 138.477 92.0846 138.456 92.1064C138.225 92.356 138.166 92.7157 138.302 93.026C138.438 93.3363 138.748 93.5356 139.088 93.5356C142.799 93.5356 145.534 94.7456 147.218 97.1314C148.826 99.4109 149 102.065 149 103.1C149 106.034 146.748 111.514 141.322 111.514C135.664 111.514 134.169 107.197 134.169 104.915C134.169 102.43 136.049 98.9867 139.578 98.9867C141.159 98.9867 142.404 99.5172 143.279 100.564C144.01 101.437 144.429 102.64 144.429 103.866C144.429 105.544 143.032 106.907 142.121 106.907C141.913 106.907 141.744 106.835 141.588 106.679C141.238 106.329 141.3 105.956 141.681 104.94C142.01 104.064 142.459 102.865 141.504 101.91C141.015 101.422 140.351 101.153 139.634 101.153C137.996 101.153 136.303 102.535 136.303 104.848C136.303 108.017 139.582 109.389 141.255 109.389C143.883 109.389 146.952 107.738 146.952 103.088C146.952 97.7758 141.808 95.5703 139.054 95.5703C136.678 95.5703 135.614 95.9964 135.5 96.0448C135.401 96.0875 135.311 96.1482 135.235 96.2242C131.715 99.7146 127.878 100.091 126.391 100.091C126.082 100.091 125.905 100.073 125.903 100.073C125.874 100.07 125.845 100.069 125.816 100.069C125.474 100.069 125.16 100.273 125.026 100.592C124.881 100.94 124.979 101.34 125.268 101.58C125.303 101.609 128.886 104.659 128.886 109.616C128.886 112.684 127.705 115.02 125.376 116.559C123.426 117.847 121.222 118.188 120.329 118.188C118.754 118.188 112.876 116.997 112.876 111.172C112.876 104.994 118.935 104.923 118.997 104.923C119.635 104.923 121.122 105.073 121.122 106.459C121.122 106.755 121.122 107.657 119.629 107.657C117.777 107.657 115.614 108.559 115.614 111.105C115.614 114.043 118.45 115.364 120.464 115.364C121.767 115.364 126.015 114.92 126.015 109.21C126.015 103.81 121.794 102.543 118.07 101.425C114.417 100.328 111.799 97.9011 111.772 97.8773C111.611 97.7255 111.4 97.6458 111.186 97.6458C111.071 97.6458 110.956 97.6686 110.847 97.716C110.534 97.8517 110.331 98.1592 110.331 98.4989C110.331 99.8133 109.478 102.938 107.189 105.732C105.324 108.01 101.941 110.724 96.4232 110.724C90.9865 110.724 87.7765 107.96 86.0409 105.643C83.9984 102.916 83.2375 99.8959 83.2375 98.6337C83.2375 97.3535 83.6374 94.5217 85.1355 92.0258C86.9433 89.0165 89.723 87.4905 93.3985 87.4905C96.9638 87.4905 99.5601 88.8333 101.115 91.4829C102.418 93.7017 102.477 95.9509 102.477 95.9727V95.9955C102.477 97.0906 102.281 99.838 100.43 101.689C99.2238 102.896 97.4958 103.507 95.2946 103.507C93.2702 103.507 91.7123 102.912 90.6654 101.738C88.6486 99.4783 89.0514 95.7478 89.0561 95.7098C89.1084 95.259 88.7987 94.8462 88.3512 94.7693C88.3018 94.7608 88.2534 94.757 88.2049 94.757C87.8135 94.757 87.463 95.0256 87.3727 95.4194C86.7714 98.0387 86.4142 101.116 89.8132 104.513C91.1622 105.86 93.9466 106.766 96.7434 106.766C101.673 106.766 106.94 103.894 106.94 95.836C106.94 82.344 95.535 77.9786 90.0118 77.9786C81.7222 77.9786 76.2465 81.0705 73.7357 87.1669C70.6559 94.646 70.4108 100.736 70.4108 107.921C70.4108 111.136 72.0134 112.969 73.3567 113.942C74.8197 115.001 76.6085 115.475 77.7314 115.475C79.1212 115.475 80.5443 114.901 82.0519 114.292C83.7828 113.594 85.7445 112.802 87.9237 112.802C92.6147 112.802 95.6347 115.262 97.3428 117.325C99.4755 119.903 100.748 123.355 100.748 126.561C100.748 130.071 99.1649 132.25 97.8358 133.46C96.2133 134.939 94.0008 135.82 91.9194 135.82C87.975 135.82 83.5643 132.671 83.5643 128.455C83.5643 126.425 84.2625 124.553 85.5298 123.183C86.7382 121.878 88.3218 121.157 89.989 121.157C91.9108 121.157 93.8459 122.13 94.9203 123.635C95.5958 124.581 96.2408 126.173 95.4789 128.38C94.8301 130.261 93.4384 131.216 91.3446 131.216C90.2179 131.216 89.3155 130.928 89.306 130.925C89.2186 130.897 89.1302 130.884 89.0419 130.884C88.7217 130.884 88.4177 131.064 88.2714 131.366C88.0852 131.75 88.2106 132.211 88.5659 132.448C89.1882 132.862 90.5818 133.308 92.1692 133.308C95.0372 133.308 97.1101 131.889 98.0078 129.311C99.6883 124.485 96.7054 120.036 96.332 119.507C95.1512 117.419 92.2785 116.021 89.1606 116.021C84.6026 116.021 81.1342 118.882 79.8831 123.673C77.2953 133.581 76.8251 150.103 84.0136 164.059C87.0345 169.924 93.5799 177.676 103.467 187.102C108.494 191.893 113.148 195.916 115.603 197.993H31.8653V198ZM90.0441 123.583C86.8369 123.583 85.9896 126.565 85.9896 128.141V129.156C85.9896 129.607 86.342 129.981 86.7933 130.008C86.8103 130.009 86.8284 130.01 86.8455 130.01C87.2749 130.01 87.6406 129.69 87.6938 129.259C87.8601 127.896 88.7521 127.896 89.0457 127.896C89.3668 127.896 89.4446 127.986 89.6755 128.253C89.9377 128.556 90.3775 129.063 91.2126 129.063C92.6698 129.063 93.4555 127.708 93.4555 126.434C93.4555 125.238 92.2699 123.583 90.0441 123.583ZM93.8079 90.8955C92.6708 90.8955 91.8196 91.2979 91.7256 91.3444C91.3893 91.5095 91.1993 91.8749 91.2591 92.245C91.319 92.6151 91.6125 92.9036 91.984 92.9558C92.0581 92.9672 93.8792 93.2557 93.8792 94.5568C93.8792 95.4232 93.5961 95.6813 93.237 96.0078C92.9263 96.2906 92.457 96.7186 92.457 97.4655C92.457 98.9469 94.3114 99.8531 95.3212 99.8531L95.4799 99.8541C97.6468 99.8541 98.84 98.4372 98.84 95.8645C98.84 92.1472 95.3849 90.8955 93.8079 90.8955ZM39.6238 85.322C38.7403 85.322 37.9537 85.8601 37.5718 86.7265C37.207 87.5541 37.3153 88.5591 37.8615 89.416C38.5047 90.4248 39.6257 91.0436 40.8597 91.0711C40.891 91.072 40.9224 91.072 40.9528 91.072C43.3772 91.072 44.2464 89.0155 44.2825 88.9273C44.4259 88.5771 44.3214 88.1747 44.0269 87.9384C43.8711 87.8132 43.6811 87.7505 43.4911 87.7505C43.3211 87.7505 43.1511 87.8008 43.0048 87.9024C42.9772 87.9194 42.8176 87.9887 42.5763 87.9887C42.3778 87.9887 42.184 87.9432 42.0016 87.8521C41.7802 87.7429 41.7802 87.7429 41.6795 87.2865C41.6396 87.1061 41.5893 86.8812 41.5095 86.626C41.2644 85.8468 40.5063 85.322 39.6238 85.322ZM66.1615 70.2784C65.184 70.2784 64.3072 70.8772 63.873 71.8405C63.4531 72.7724 63.569 73.9008 64.1818 74.8593C64.898 75.9791 66.153 76.6557 67.5371 76.669H67.5846C70.3424 76.669 71.3551 74.3316 71.3969 74.232C71.5441 73.8818 71.4415 73.4756 71.1451 73.2374C70.9893 73.1112 70.7984 73.0476 70.6084 73.0476C70.4374 73.0476 70.2664 73.0989 70.1192 73.2014C70.0783 73.2298 69.8541 73.3371 69.5102 73.3371C69.2651 73.3371 69.0286 73.282 68.8063 73.1748C68.5032 73.0277 68.4937 72.984 68.3807 72.445C68.337 72.2381 68.2828 71.98 68.1945 71.6896C67.9399 70.8469 67.122 70.2784 66.1615 70.2784ZM9.85322 53.4564C8.50044 53.4564 7.44026 54.6483 7.44026 56.1705C7.44026 57.7184 8.88994 59.4427 10.9704 59.4427C12.612 59.4427 13.6788 58.5715 14.0512 58.0562C14.2706 57.7525 14.2659 57.3426 14.0417 57.0436C13.8773 56.8244 13.6218 56.702 13.3577 56.702C13.2618 56.702 13.1649 56.7181 13.0708 56.7513C12.8181 56.8415 12.5825 56.887 12.3678 56.887C11.927 56.887 11.7247 56.6944 11.6582 56.6109C11.5793 56.5131 11.5746 56.4353 11.5784 56.422C11.9337 55.7805 11.9318 55.0289 11.5708 54.4177C11.2145 53.8161 10.5724 53.4564 9.85322 53.4564ZM99.5183 41.7628C98.4571 41.7628 97.4891 42.169 96.7196 42.9376C95.7858 43.8705 95.383 45.1697 95.6423 46.4119C95.8646 47.4767 96.541 48.3261 97.452 48.6839C97.7798 48.812 98.1123 48.8775 98.44 48.8775C99.2637 48.8775 100.005 48.4684 100.422 47.7823C100.79 47.1759 100.828 46.4613 100.521 45.872C100.388 45.6167 100.254 45.406 100.147 45.2371C99.8641 44.792 99.8603 44.7787 99.9581 44.5073C100.161 43.9417 100.641 43.6826 100.784 43.6579C101.156 43.5915 101.446 43.2878 101.489 42.912C101.531 42.5362 101.325 42.1765 100.976 42.0285C100.912 42.001 100.325 41.7628 99.5183 41.7628Z" fill="url(#paint0_linear)"/>
</g>
<defs>
<filter id="filter0_i" x="0" y="0" width="149" height="198" filterUnits="userSpaceOnUse" color-interpolation-filters="sRGB">
<feFlood flood-opacity="0" result="BackgroundImageFix"/>
<feBlend mode="normal" in="SourceGraphic" in2="BackgroundImageFix" result="shape"/>
<feColorMatrix in="SourceAlpha" type="matrix" values="0 0 0 0 0 0 0 0 0 0 0 0 0 0 0 0 0 0 127 0" result="hardAlpha"/>
<feOffset/>
<feGaussianBlur stdDeviation="30"/>
<feComposite in2="hardAlpha" operator="arithmetic" k2="-1" k3="1"/>
<feColorMatrix type="matrix" values="0 0 0 0 0 0 0 0 0 0 0 0 0 0 0 0 0 0 0.25 0"/>
<feBlend mode="normal" in2="shape" result="effect1_innerShadow"/>
</filter>
<linearGradient id="paint0_linear" x1="18.9599" y1="199.413" x2="113.888" y2="19.5138" gradientUnits="userSpaceOnUse">
<stop stop-color="#F4CB58"/>
<stop offset="0.2144" stop-color="#D69404"/>
<stop offset="0.2983" stop-color="#B17213"/>
<stop offset="0.349" stop-color="#A26415"/>
<stop offset="0.4032" stop-color="#AA6C14"/>
<stop offset="0.49" stop-color="#C3830E"/>
<stop offset="0.5406" stop-color="#D69404"/>
<stop offset="0.5799" stop-color="#E0AE28"/>
<stop offset="0.64" stop-color="#EDD04E"/>
<stop offset="0.687" stop-color="#F5E567"/>
<stop offset="0.7147" stop-color="#F8ED71"/>
<stop offset="0.7522" stop-color="#F7E96C"/>
<stop offset="0.7981" stop-color="#F3DE60"/>
<stop offset="0.8483" stop-color="#EDCB4C"/>
<stop offset="0.9017" stop-color="#E4B031"/>
<stop offset="0.9571" stop-color="#D98D0E"/>
<stop offset="0.9626" stop-color="#D88908"/>
</linearGradient>
</defs>
</svg>
