<svg width="36" height="40" viewBox="0 0 36 40" fill="none" xmlns="http://www.w3.org/2000/svg">
<path d="M18.875 0.0333333C21.0583 0 23.225 0.0166667 25.3917 0C25.525 2.55 26.4417 5.15 28.3083 6.95C30.175 8.8 32.8083 9.65 35.375 9.93333V16.65C32.975 16.5667 30.5583 16.0667 28.375 15.0333C27.425 14.6 26.5417 14.05 25.675 13.4833C25.6583 18.35 25.6917 23.2167 25.6417 28.0667C25.5083 30.4 24.7417 32.7167 23.3917 34.6333C21.2083 37.8333 17.425 39.9167 13.5417 39.9833C11.1583 40.1167 8.77499 39.4667 6.74166 38.2667C3.37499 36.2833 1.00833 32.65 0.658326 28.75C0.624992 27.9167 0.608326 27.0833 0.641659 26.2667C0.941659 23.1 2.50833 20.0667 4.94166 18C7.70833 15.6 11.575 14.45 15.1917 15.1333C15.225 17.6 15.125 20.0667 15.125 22.5333C13.475 22 11.5417 22.15 10.0917 23.15C9.04166 23.8333 8.24166 24.8833 7.82499 26.0667C7.47499 26.9167 7.57499 27.85 7.59166 28.75C7.99166 31.4833 10.625 33.7833 13.425 33.5333C15.2917 33.5167 17.075 32.4333 18.0417 30.85C18.3583 30.3 18.7083 29.7333 18.725 29.0833C18.8917 26.1 18.825 23.1333 18.8417 20.15C18.8583 13.4333 18.825 6.73333 18.875 0.0333333Z" fill="#404040"/>
</svg>
