<svg width="40" height="36" viewBox="0 0 40 36" fill="none" xmlns="http://www.w3.org/2000/svg">
<path d="M40 4.81814C38.529 5.51972 36.9488 5.99375 35.2876 6.20802C37.0017 5.10407 38.2841 3.36658 38.8954 1.31976C37.285 2.34935 35.5225 3.07406 33.6845 3.4624C32.4485 2.04193 30.8113 1.10043 29.0273 0.78405C27.2432 0.467675 25.412 0.794133 23.8179 1.71274C22.2239 2.63135 20.9562 4.09071 20.2117 5.86425C19.4672 7.63779 19.2875 9.62629 19.7005 11.521C16.4374 11.3447 13.2452 10.4318 10.3311 8.84158C7.41693 7.25139 4.84602 5.01944 2.78517 2.29059C2.08051 3.59892 1.67533 5.11584 1.67533 6.73135C1.67454 8.18568 2.00728 9.61774 2.64402 10.9005C3.28076 12.1832 4.20182 13.2769 5.32546 14.0846C4.02233 14.04 2.74795 13.661 1.60839 12.9791V13.0929C1.60825 15.1327 2.26378 17.1097 3.46372 18.6884C4.66367 20.2672 6.33413 21.3505 8.19167 21.7545C6.9828 22.1066 5.71538 22.1585 4.48516 21.9062C5.00924 23.6613 6.03012 25.196 7.40486 26.2956C8.7796 27.3952 10.4394 28.0045 12.1519 28.0383C9.24484 30.4946 5.65469 31.827 1.95895 31.8211C1.30429 31.8213 0.650183 31.7802 0 31.6979C3.75139 34.294 8.11828 35.6718 12.5782 35.6665C27.6755 35.6665 35.9288 22.2077 35.9288 10.535C35.9288 10.1558 35.92 9.77276 35.9042 9.39353C37.5095 8.14393 38.8953 6.59653 39.9965 4.82383L40 4.81814Z" fill="#404040"/>
</svg>
