<svg width="41" height="28" viewBox="0 0 41 28" fill="none" xmlns="http://www.w3.org/2000/svg">
<path d="M39.1667 4.84529C38.9402 4.03734 38.499 3.30587 37.89 2.72862C37.2638 2.13363 36.4963 1.70802 35.66 1.49196C32.53 0.666956 19.99 0.666956 19.99 0.666956C14.7622 0.607477 9.53573 0.86908 4.34001 1.45029C3.50366 1.68231 2.73762 2.11743 2.11001 2.71696C1.49335 3.31029 1.04668 4.04196 0.813347 4.84362C0.252836 7.86319 -0.0194994 10.9292 1.39293e-05 14.0003C-0.0199861 17.0686 0.251681 20.1336 0.813347 23.157C1.04168 23.9553 1.48668 24.6836 2.10501 25.272C2.72335 25.8603 3.49335 26.2853 4.34001 26.5103C7.51168 27.3336 19.99 27.3336 19.99 27.3336C25.2245 27.3932 30.4576 27.1316 35.66 26.5503C36.4963 26.3342 37.2638 25.9086 37.89 25.3136C38.5067 24.7253 38.945 23.9936 39.165 23.197C39.7402 20.1785 40.0198 17.1113 40 14.0386C40.0433 10.953 39.764 7.87123 39.1667 4.84362V4.84529ZM16.0033 19.707V8.29529L26.4367 14.002L16.0033 19.707Z" fill="#404040"/>
</svg>
